<svg width="49" height="48" viewBox="0 0 49 48" fill="none" xmlns="http://www.w3.org/2000/svg">
<path d="M44.8206 24C44.8206 11.784 35.7796 1.6752 24.0196 0V3.216C11.7936 3.216 1.67657 12.2496 0 24H3.21863C3.21863 36.216 12.2596 46.3248 24.0196 48V44.784C36.2456 44.784 46.3627 35.7504 48.0392 24H44.8206Z" fill="#FC6200"/>
<path d="M31.5233 28.3296C30.0245 30.9168 27.2238 32.6592 24.0148 32.6592C19.2301 32.6592 15.3485 28.7808 15.3485 24C15.3485 19.2192 19.2301 15.3408 24.0148 15.3408C27.2238 15.3408 30.0245 17.0784 31.5233 19.6704L36.212 16.9632C33.8869 12.3744 29.3616 9.096 24.0196 8.5056V10.1424C15.9923 10.1424 9.37727 16.2 8.51736 24H10.1555C10.1555 32.0208 16.2229 38.6304 24.0244 39.4896V37.8528C29.2655 37.8528 33.8965 35.2752 36.726 31.32L31.533 28.3248L31.5233 28.3296Z" fill="white"/>
</svg>
