<svg width="176" height="75" viewBox="0 0 176 75" fill="none" xmlns="http://www.w3.org/2000/svg">
<g clip-path="url(#clip0_1023_196)">
<path d="M109.787 25.8603C109.787 12.6974 100.053 1.80505 87.3921 0V3.46528C74.2293 3.46528 63.3369 13.1991 61.5319 25.8603H64.9971C64.9971 39.0232 74.731 49.9155 87.3921 51.7206V48.2553C100.555 48.2553 111.447 38.5215 113.252 25.8603H109.787Z" fill="#FC6200"/>
<path d="M95.4708 30.5255C93.8571 33.3133 90.8418 35.1907 87.3869 35.1907C82.2355 35.1907 78.0565 31.0117 78.0565 25.8603C78.0565 20.7089 82.2355 16.5299 87.3869 16.5299C90.8418 16.5299 93.8571 18.4022 95.4708 21.1951L100.519 18.2781C98.0155 13.3336 93.1434 9.80108 87.3921 9.16492V10.9286C78.7496 10.9286 71.6276 17.4557 70.7018 25.8603H72.4655C72.4655 34.5028 78.9978 41.6247 87.3972 42.5505V40.7869C93.04 40.7869 98.0258 38.0095 101.072 33.7477L95.4812 30.5203L95.4708 30.5255Z" fill="white"/>
<path d="M14.6989 65.7577C14.9161 65.4111 15.1799 65.1008 15.4902 64.8267C15.8057 64.5526 16.1574 64.3198 16.5556 64.1233C16.9539 63.9268 17.3883 63.7768 17.859 63.6733C18.3297 63.5699 18.8262 63.5182 19.3486 63.5182C20.2123 63.5182 20.9364 63.6268 21.5312 63.8492C22.1259 64.0716 22.5966 64.3509 22.9431 64.6922C23.2897 65.0336 23.5069 65.3904 23.6 65.768H27.9083C27.8049 64.8422 27.4376 63.9733 26.8118 63.1613C26.186 62.3544 25.2912 61.6976 24.1275 61.2011C22.9638 60.7046 21.5105 60.4563 19.7571 60.4563C18.8313 60.4563 17.9418 60.5339 17.0935 60.6839C16.2453 60.8339 15.4488 61.0614 14.7144 61.3614C13.9748 61.6614 13.3076 62.0389 12.7076 62.4889C12.1077 62.9389 11.5905 63.4561 11.1612 64.0457C10.7319 64.6353 10.3957 65.287 10.163 66.0059C9.93024 66.7248 9.81128 67.5162 9.81128 68.3747C9.81128 69.6936 10.1526 70.8521 10.8405 71.8503C11.5284 72.8485 12.5007 73.6244 13.7576 74.1726C15.0195 74.7208 16.5091 74.995 18.2314 74.995C19.7727 74.995 21.1639 74.7881 22.4052 74.3795C23.6465 73.9657 24.6861 73.3658 25.5292 72.5693C26.3722 71.7728 26.967 70.8108 27.3239 69.6884H23.0155C22.7828 70.1436 22.4414 70.5418 22.007 70.8728C21.5674 71.2038 21.0553 71.4676 20.4605 71.6538C19.8658 71.8452 19.2193 71.9383 18.5107 71.9383C17.6211 71.9383 16.8401 71.7935 16.1677 71.4986C15.4954 71.2038 14.9678 70.7797 14.5903 70.216C14.2127 69.6522 14.0213 68.9747 14.0213 68.1782C14.0213 67.723 14.0782 67.2886 14.1972 66.8852C14.3161 66.4817 14.4816 66.1042 14.6989 65.7577Z" fill="white"/>
<path d="M45.7727 60.7354H42.1109L40.7765 68.3538C40.6575 69.0728 40.4093 69.7037 40.0214 70.2416C39.6386 70.7847 39.1421 71.2036 38.5318 71.5036C37.9267 71.8036 37.2233 71.9536 36.4268 71.9536C35.5889 71.9536 34.901 71.8243 34.3528 71.5709C33.8045 71.3174 33.4115 70.9399 33.1787 70.433C32.946 69.9313 32.8839 69.3262 33.0029 68.6228L34.4148 60.7302H30.3599L29.0256 68.3125C28.7773 69.7348 28.9118 70.945 29.429 71.9432C29.9462 72.9415 30.7737 73.7017 31.9167 74.2138C33.0598 74.731 34.4355 74.9896 36.0389 74.9896C37.6422 74.9896 39.0076 74.7568 40.161 74.2862C41.3144 73.8155 42.2505 73.107 42.9591 72.1501C43.6728 71.1985 44.1487 70.0037 44.3969 68.5659L45.7675 60.7302L45.7727 60.7354Z" fill="white"/>
<path d="M52.8427 60.7356L43.5796 74.7208H47.9862L49.755 71.9176H57.0062L57.8131 74.7208H61.9456L57.5959 60.7356H52.8376H52.8427ZM51.6273 68.9643L54.7357 64.0457L56.158 68.9643H51.6273Z" fill="white"/>
<path d="M77.9118 60.7356H62.2456L61.7129 63.7716H67.5108L65.5557 74.7208H69.6106L71.545 63.7716H77.3635L77.9118 60.7356Z" fill="white"/>
<path d="M92.0832 61.1752C91.4367 60.8804 90.6816 60.7356 89.823 60.7356H79.5203L77.0739 74.7208H81.1081L81.9719 69.8229H87.0043C87.6818 69.8229 88.1628 69.9419 88.4421 70.1849C88.7214 70.428 88.8972 70.8677 88.9593 71.509L89.3524 74.7208H93.4486L92.9211 70.9607C92.828 70.3349 92.678 69.8281 92.4711 69.4453C92.2642 69.0626 91.9281 68.7575 91.4729 68.5351C91.2402 68.4213 90.9505 68.3282 90.6144 68.2506C91.1678 68.1472 91.6643 67.9661 92.0884 67.7127C92.7452 67.3196 93.2521 66.8283 93.5986 66.2335C93.9452 65.6387 94.1158 65.0181 94.1158 64.3612C94.1158 63.6164 93.94 62.9751 93.5883 62.432C93.2366 61.889 92.7349 61.47 92.0884 61.1804L92.0832 61.1752ZM88.9179 66.5904C88.6283 66.7093 88.3283 66.7662 88.018 66.7662H82.5149L83.0218 63.7871H88.5662C88.9696 63.7871 89.2955 63.8854 89.5437 64.0819C89.792 64.2785 89.9161 64.5991 89.9161 65.0439C89.9161 65.4473 89.823 65.7783 89.6317 66.0318C89.4403 66.2852 89.2024 66.4714 88.9179 66.5904Z" fill="white"/>
<path d="M109.751 61.2733C108.489 60.7303 106.994 60.4613 105.256 60.4613C104.341 60.4613 103.457 60.5389 102.603 60.6889C101.75 60.8389 100.953 61.0664 100.214 61.3768C99.4741 61.6819 98.8069 62.0646 98.207 62.5146C97.607 62.9646 97.0898 63.487 96.6605 64.0817C96.2312 64.6765 95.8951 65.3334 95.6623 66.0523C95.4296 66.7712 95.3106 67.5625 95.3106 68.4211C95.3106 69.74 95.652 70.8933 96.3295 71.876C97.007 72.8639 97.9794 73.6294 99.2362 74.1776C100.498 74.7258 101.993 75 103.731 75C104.657 75 105.546 74.9224 106.394 74.7724C107.243 74.6224 108.034 74.3948 108.773 74.0845C109.513 73.7794 110.18 73.3966 110.78 72.9466C111.38 72.4967 111.897 71.9743 112.327 71.3795C112.756 70.7847 113.092 70.1279 113.325 69.409C113.558 68.69 113.677 67.8987 113.677 67.0402C113.677 65.7213 113.335 64.5679 112.658 63.5749C111.98 62.5818 111.008 61.8164 109.751 61.2733ZM109.311 68.5607C109.192 68.9745 109.027 69.3469 108.81 69.6883C108.592 70.0296 108.329 70.3399 108.008 70.6192C107.687 70.8985 107.33 71.1364 106.932 71.333C106.534 71.5295 106.094 71.6795 105.619 71.7829C105.143 71.8864 104.631 71.9381 104.082 71.9381C103.157 71.9381 102.345 71.7881 101.652 71.4881C100.958 71.1881 100.426 70.7589 100.053 70.1951C99.681 69.6314 99.4948 68.959 99.4948 68.178C99.4948 67.7074 99.5517 67.2729 99.6707 66.8643C99.7896 66.4609 99.9603 66.0833 100.188 65.7368C100.415 65.3903 100.69 65.08 101.01 64.8058C101.331 64.5317 101.688 64.299 102.086 64.1128C102.484 63.9214 102.919 63.7766 103.389 63.6732C103.86 63.5697 104.362 63.518 104.9 63.518C105.841 63.518 106.653 63.668 107.336 63.968C108.024 64.2679 108.551 64.6972 108.923 65.2506C109.296 65.804 109.482 66.4816 109.482 67.2781C109.482 67.7229 109.425 68.1521 109.306 68.5607H109.311Z" fill="white"/>
<path d="M130.041 61.589C129.369 61.0201 128.432 60.7356 127.232 60.7356H116.521L114.075 74.7208H124.926C126.048 74.7208 127.026 74.5502 127.853 74.2036C128.681 73.8571 129.327 73.3709 129.793 72.7451C130.258 72.1193 130.486 71.3849 130.486 70.5522C130.486 69.9108 130.32 69.3626 129.994 68.8971C129.669 68.4316 129.208 68.0696 128.624 67.8006C128.324 67.6661 127.993 67.5627 127.631 67.4903C128.143 67.4179 128.613 67.2782 129.032 67.0765C129.674 66.7714 130.17 66.3473 130.522 65.8042C130.874 65.2611 131.049 64.6508 131.049 63.9733C131.049 62.9544 130.713 62.1631 130.041 61.5942V61.589ZM120.043 63.7716H125.743C126.11 63.7716 126.405 63.8699 126.633 64.0664C126.86 64.2629 126.974 64.5215 126.974 64.8474C126.974 65.1215 126.907 65.3646 126.767 65.5715C126.633 65.7783 126.436 65.9387 126.188 66.0525C125.939 66.1611 125.639 66.218 125.288 66.218H119.609L120.038 63.7716H120.043ZM126.115 70.9401C125.96 71.1728 125.743 71.359 125.469 71.4883C125.195 71.6176 124.879 71.6848 124.527 71.6848H118.652L119.123 68.9643H125.195C125.443 68.9643 125.65 69.0109 125.821 69.1092C125.991 69.2074 126.12 69.3419 126.214 69.5229C126.307 69.6988 126.348 69.9057 126.348 70.1384C126.348 70.4384 126.27 70.7073 126.115 70.9401Z" fill="#FC6200"/>
<path d="M131.541 74.7208H145.542L146.09 71.6642H136.16L136.594 69.1609H145.78L146.271 66.2387H137.101L137.535 63.7923H147.46L148.029 60.7356H134.029L131.541 74.7208Z" fill="#FC6200"/>
<path d="M149.302 60.7356L148.774 63.7716H154.572L152.612 74.7208H156.667L158.606 63.7716H164.425L164.973 60.7356H149.302Z" fill="#FC6200"/>
</g>
<defs>
<clipPath id="clip0_1023_196">
<rect width="176" height="75" fill="white"/>
</clipPath>
</defs>
</svg>
